<svg width="25" height="25" viewBox="0 0 25 25" fill="none" xmlns="http://www.w3.org/2000/svg">
<path d="M16.7175 14.6938C16.0345 14.6317 15.544 15.1858 15.0789 15.7112C14.794 16.033 14.5186 16.344 14.2143 16.4961C12.9127 17.197 10.5096 14.6938 10.5096 14.6938C10.5096 14.6938 8.00635 12.2907 8.60712 10.9891C8.78772 10.7001 9.09861 10.4372 9.41759 10.1675C9.98288 9.68946 10.5736 9.18995 10.5096 8.48585C10.4094 7.48457 8.20661 3.87993 7.10519 4.88122C4.7021 7.08405 4.50185 7.98521 4.50185 9.78752C4.40172 12.8915 8.40686 16.7965 8.40686 16.7965C8.4168 16.8065 8.42864 16.8184 8.44234 16.8321C8.98097 17.3736 12.3889 20.7992 15.4159 20.7015C17.2182 20.7015 18.1193 20.5013 20.3222 18.0982C21.3235 16.9968 17.819 14.794 16.7175 14.6938Z" fill="#1D2E2E"/>
<path d="M16.7175 14.6938C16.0345 14.6317 15.544 15.1858 15.0789 15.7112C14.794 16.033 14.5186 16.344 14.2143 16.4961C12.9127 17.197 10.5096 14.6938 10.5096 14.6938C10.5096 14.6938 8.00635 12.2907 8.60712 10.9891C8.78772 10.7001 9.09861 10.4372 9.41759 10.1675C9.98288 9.68946 10.5736 9.18995 10.5096 8.48585C10.4094 7.48457 8.20661 3.87993 7.10519 4.88122C4.7021 7.08405 4.50185 7.98521 4.50185 9.78752C4.40172 12.8915 8.40686 16.7965 8.40686 16.7965C8.4168 16.8065 8.42864 16.8184 8.44234 16.8321C8.98097 17.3736 12.3889 20.7992 15.4159 20.7015C17.2182 20.7015 18.1193 20.5013 20.3222 18.0982C21.3235 16.9968 17.819 14.794 16.7175 14.6938Z" stroke="#1D2E2E"/>
</svg>
