<svg width="25" height="25" viewBox="0 0 25 25" fill="none" xmlns="http://www.w3.org/2000/svg">
<path d="M12.1 4.70728C9.008 4.70728 6.5 7.21528 6.5 10.3073C6.5 14.5073 12.1 20.7073 12.1 20.7073C12.1 20.7073 17.7 14.5073 17.7 10.3073C17.7 7.21528 15.192 4.70728 12.1 4.70728ZM12.1 12.3073C10.996 12.3073 10.1 11.4113 10.1 10.3073C10.1 9.20328 10.996 8.30728 12.1 8.30728C13.204 8.30728 14.1 9.20328 14.1 10.3073C14.1 11.4113 13.204 12.3073 12.1 12.3073Z" fill="#1D2E2E"/>
<path d="M12.1 4.70728C9.008 4.70728 6.5 7.21528 6.5 10.3073C6.5 14.5073 12.1 20.7073 12.1 20.7073C12.1 20.7073 17.7 14.5073 17.7 10.3073C17.7 7.21528 15.192 4.70728 12.1 4.70728ZM12.1 12.3073C10.996 12.3073 10.1 11.4113 10.1 10.3073C10.1 9.20328 10.996 8.30728 12.1 8.30728C13.204 8.30728 14.1 9.20328 14.1 10.3073C14.1 11.4113 13.204 12.3073 12.1 12.3073Z" stroke="#1D2E2E"/>
</svg>
