<svg width="260" height="124" viewBox="0 0 260 124" fill="none" xmlns="http://www.w3.org/2000/svg">
<rect y="1.38965" width="212" height="24" rx="7.75463" fill="#EBFFFF"/>
<rect x="73" y="49.3877" width="185.133" height="24" rx="7.75463" fill="#EBFFFF"/>
<rect x="33" y="98.3877" width="146" height="24" rx="7.75463" fill="#EBFFFF"/>
<circle cx="248" cy="13.3896" r="12" fill="#EBFFFF"/>
<g clip-path="url(#clip0_6_41709)">
<rect width="104.78" height="123.477" transform="translate(119.305)" fill="white"/>
<path d="M217.936 30.618V31.6708H220.668C221.608 31.6708 222.463 32.055 223.081 32.6731C223.699 33.2906 224.084 34.1461 224.084 35.0863V62.6584C224.084 63.6321 223.294 64.4215 222.321 64.4215C221.347 64.4215 220.558 63.6316 220.558 62.6584V35.1975H217.936V105.58C217.936 105.788 217.9 105.987 217.834 106.172L213.297 122.188C213.034 123.124 212.063 123.67 211.127 123.408C210.509 123.234 210.062 122.752 209.904 122.175L205.337 106.056C205.293 105.897 205.272 105.737 205.271 105.58L205.269 39.827L205.268 39.7815L205.269 39.7359V33.4795L205.268 33.4339L205.269 33.3883L205.268 30.6175C205.268 28.8789 205.981 27.2962 207.128 26.1492L207.134 26.1427C208.281 24.9961 209.863 24.2834 211.602 24.2834C213.341 24.2834 214.924 24.9961 216.071 26.1427L216.077 26.1492C217.224 27.2962 217.936 28.8789 217.936 30.618ZM203.433 119.95C204.407 119.95 205.196 120.74 205.196 121.714C205.196 122.687 204.406 123.477 203.433 123.477H134.405C133.431 123.477 132.642 122.687 132.642 121.714V24.5439H121.068C120.094 24.5439 119.305 23.754 119.305 22.7808V8.43122C119.305 6.11117 120.253 4.00249 121.781 2.47532C123.307 0.948657 125.416 0 127.736 0H198.265C202.419 0 206.195 1.69947 208.931 4.43474C211.667 7.17102 213.366 10.9476 213.366 15.1009V20.3986C213.366 21.3723 212.576 22.1617 211.603 22.1617C210.629 22.1617 209.84 21.3718 209.84 20.3986V15.1009C209.84 11.9208 208.537 9.02626 206.438 6.9276C204.34 4.82943 201.447 3.52666 198.266 3.52666H134.587C135.582 4.91007 136.169 6.60554 136.169 8.43172V119.951L203.433 119.95ZM132.641 8.43122C132.641 7.08437 132.089 5.85723 131.199 4.96818L131.126 4.89004C130.244 4.04657 129.047 3.52616 127.736 3.52616C126.389 3.52616 125.162 4.07912 124.273 4.96818C123.383 5.85773 122.83 7.08437 122.83 8.43122V21.0177H132.641V8.43122ZM146.323 106.586C145.349 106.586 144.56 105.796 144.56 104.823C144.56 103.849 145.35 103.059 146.323 103.059H186.266C187.24 103.059 188.029 103.849 188.029 104.823C188.029 105.796 187.239 106.586 186.266 106.586H146.323ZM146.323 90.9834C145.349 90.9834 144.56 90.1935 144.56 89.2203C144.56 88.2466 145.35 87.4572 146.323 87.4572H199.685C200.658 87.4572 201.448 88.2471 201.448 89.2203C201.448 90.194 200.658 90.9834 199.685 90.9834H146.323ZM146.323 75.3811C145.349 75.3811 144.56 74.5913 144.56 73.6181C144.56 72.6444 145.35 71.855 146.323 71.855H167.854C168.828 71.855 169.618 72.6449 169.618 73.6181C169.618 74.5918 168.828 75.3811 167.854 75.3811H146.323ZM173.003 11.3939C179.624 11.3939 185.62 14.0781 189.96 18.4177C194.299 22.7567 196.983 28.7527 196.983 35.3738C196.983 41.9943 194.299 47.9908 189.96 52.3299C185.62 56.669 179.625 59.3536 173.003 59.3536C166.383 59.3536 160.386 56.6695 156.047 52.3299C151.708 47.9908 149.024 41.9948 149.024 35.3738C149.024 28.7532 151.708 22.7567 156.047 18.4177C160.386 14.0786 166.382 11.3939 173.003 11.3939ZM187.467 20.9105C183.766 17.2101 178.652 14.9206 173.003 14.9206C167.355 14.9206 162.241 17.2101 158.54 20.9105C154.84 24.611 152.55 29.7254 152.55 35.3738C152.55 41.0221 154.84 46.1366 158.54 49.837C162.241 53.5375 167.355 55.827 173.003 55.827C178.652 55.827 183.766 53.5375 187.467 49.837C191.167 46.1366 193.457 41.0221 193.457 35.3738C193.457 29.7254 191.167 24.611 187.467 20.9105ZM174.767 49.7909C174.767 50.7646 173.977 51.554 173.004 51.554C172.03 51.554 171.241 50.7641 171.241 49.7909V47.835H169.742C167.785 47.835 166.006 47.0346 164.718 45.7469C163.43 44.4591 162.63 42.6795 162.63 40.7226C162.63 39.7489 163.42 38.9595 164.393 38.9595C165.367 38.9595 166.156 39.7494 166.156 40.7226C166.156 41.7068 166.56 42.6039 167.21 43.254C167.86 43.9042 168.758 44.3084 169.742 44.3084H176.265C177.249 44.3084 178.146 43.9042 178.797 43.254C179.447 42.6039 179.851 41.7068 179.851 40.7226C179.851 39.7384 179.447 38.8413 178.797 38.1912C178.146 37.5411 177.249 37.1368 176.265 37.1368H169.742C167.784 37.1368 166.005 36.3365 164.717 35.0487C163.43 33.761 162.629 31.9813 162.629 30.0244C162.629 28.067 163.43 26.2879 164.717 25.0002C166.005 23.7124 167.785 22.912 169.742 22.912H171.24V20.9561C171.24 19.9824 172.03 19.193 173.003 19.193C173.977 19.193 174.767 19.9829 174.767 20.9561V22.912H176.265C178.223 22.912 180.002 23.7124 181.289 25.0002C182.577 26.2879 183.378 28.0675 183.378 30.0244C183.378 30.9981 182.588 31.7875 181.615 31.7875C180.641 31.7875 179.851 30.9976 179.851 30.0244C179.851 29.0402 179.447 28.1431 178.797 27.493C178.147 26.8429 177.25 26.4387 176.266 26.4387H169.742C168.758 26.4387 167.861 26.8429 167.211 27.493C166.561 28.1431 166.157 29.0402 166.157 30.0244C166.157 31.0086 166.561 31.9057 167.211 32.5558C167.861 33.206 168.758 33.6102 169.742 33.6102H176.266C178.223 33.6102 180.002 34.4106 181.29 35.6983C182.578 36.9861 183.378 38.7657 183.378 40.7226C183.378 42.68 182.578 44.4591 181.29 45.7469C180.002 47.0346 178.223 47.835 176.266 47.835H174.767V49.7909ZM208.795 31.6708H214.41V30.618C214.41 29.8446 214.094 29.1419 213.587 28.6335C213.078 28.1261 212.376 27.8111 211.603 27.8111C210.83 27.8111 210.127 28.1266 209.618 28.6335C209.111 29.1424 208.796 29.8451 208.796 30.618L208.795 31.6708ZM214.41 35.1975H208.795V38.0184H214.41V35.1975ZM214.41 41.545H208.795V105.349L211.602 115.258L214.41 105.349V41.545Z" fill="#00A3A3"/>
</g>
<defs>
<clipPath id="clip0_6_41709">
<rect width="104.78" height="123.477" fill="white" transform="translate(119.305)"/>
</clipPath>
</defs>
</svg>
