<svg width="16" height="17" viewBox="0 0 16 17" fill="none" xmlns="http://www.w3.org/2000/svg">
<g clip-path="url(#clip0_11200_5438)">
<path d="M16 8.70729C16 4.28901 12.4183 0.707294 8 0.707294C3.58172 0.707294 0 4.28901 0 8.70729C0 12.7003 2.92548 16.0099 6.75 16.6101V11.0198H4.71875V8.70729H6.75V6.94479C6.75 4.93979 7.94434 3.83229 9.77172 3.83229C10.647 3.83229 11.5625 3.98854 11.5625 3.98854V5.95729H10.5537C9.55992 5.95729 9.25 6.57397 9.25 7.20662V8.70729H11.4688L11.1141 11.0198H9.25V16.6101C13.0745 16.0099 16 12.7003 16 8.70729Z" fill="#1877F2"/>
<path d="M11.1141 11.0198L11.4688 8.70728H9.25V7.2066C9.25 6.57395 9.55992 5.95728 10.5537 5.95728H11.5625V3.98853C11.5625 3.98853 10.647 3.83228 9.77172 3.83228C7.94434 3.83228 6.75 4.93978 6.75 6.94478V8.70728H4.71875V11.0198H6.75V16.6101C7.1573 16.674 7.57475 16.7073 8 16.7073C8.42525 16.7073 8.8427 16.674 9.25 16.6101V11.0198H11.1141Z" fill="white"/>
</g>
<defs>
<clipPath id="clip0_11200_5438">
<rect width="16" height="16" fill="white" transform="translate(0 0.707275)"/>
</clipPath>
</defs>
</svg>
