<svg width="16" height="17" viewBox="0 0 16 17" fill="none" xmlns="http://www.w3.org/2000/svg">
<path d="M13.6328 14.2847H11.2621V10.6087C11.2621 9.73209 11.2463 8.60365 10.0291 8.60365C8.79431 8.60365 8.6054 9.55873 8.6054 10.5449V14.2845H6.23468V6.72503H8.51056V7.75811H8.54242C8.77018 7.37252 9.09931 7.05532 9.49473 6.84028C9.89016 6.62525 10.3371 6.52043 10.7879 6.537C13.1907 6.537 13.6338 8.1019 13.6338 10.1377L13.6328 14.2847ZM3.55975 5.69171C3.28765 5.69176 3.02165 5.61192 2.79538 5.46228C2.56911 5.31264 2.39275 5.09992 2.28858 4.85103C2.18441 4.60214 2.15711 4.32825 2.21014 4.064C2.26318 3.79975 2.39417 3.55701 2.58653 3.36647C2.7789 3.17593 3.02401 3.04615 3.29087 2.99354C3.55773 2.94093 3.83435 2.96786 4.08575 3.07091C4.33715 3.17397 4.55205 3.34853 4.70326 3.57251C4.85447 3.7965 4.9352 4.05985 4.93525 4.32927C4.93529 4.50816 4.89973 4.6853 4.83062 4.85058C4.76151 5.01586 4.66021 5.16604 4.53249 5.29256C4.40476 5.41907 4.2531 5.51944 4.0862 5.58792C3.9193 5.65641 3.74042 5.69168 3.55975 5.69171ZM4.7451 14.2847H2.37193V6.72503H4.7451V14.2847ZM14.8147 0.787456H1.18066C0.871207 0.783999 0.573012 0.902329 0.351627 1.11644C0.130241 1.33056 0.00377671 1.62294 0 1.92934V15.4851C0.00364745 15.7916 0.130038 16.0842 0.351416 16.2985C0.572793 16.5129 0.871053 16.6314 1.18066 16.6282H14.8147C15.1249 16.632 15.424 16.5138 15.6462 16.2995C15.8685 16.0851 15.9957 15.7922 16 15.4851V1.92837C15.9956 1.62136 15.8683 1.32864 15.646 1.11453C15.4237 0.900421 15.1247 0.782429 14.8147 0.786478" fill="#0A66C2"/>
</svg>
