<svg width="158" height="156" viewBox="0 0 158 156" fill="none" xmlns="http://www.w3.org/2000/svg">
<circle cx="95.0182" cy="62.5787" r="62.5787" fill="#EBFFFF"/>
<path d="M90.665 75.4926C90.665 85.7887 82.3189 94.1348 72.024 94.1348C61.7279 94.1348 53.3818 85.7887 53.3818 75.4926C53.3818 65.1977 61.7279 56.8516 72.024 56.8516C82.3189 56.8516 90.665 65.1977 90.665 75.4926Z" fill="white" stroke="#00CCCC" stroke-width="3.75" stroke-miterlimit="10" stroke-linecap="round" stroke-linejoin="round"/>
<path d="M35.9023 75.4941H53.3797" stroke="#00CCCC" stroke-width="3.75" stroke-miterlimit="10" stroke-linecap="round" stroke-linejoin="round"/>
<path d="M90.6656 75.4945H108.267L96.0328 112.17H48.1441L35.9086 75.4945L30.8039 60.1934H12.5391" stroke="#00CCCC" stroke-width="3.75" stroke-miterlimit="10" stroke-linecap="round" stroke-linejoin="round"/>
<path d="M56.7207 133.52C60.1283 133.52 62.8906 130.757 62.8906 127.35C62.8906 123.942 60.1283 121.18 56.7207 121.18C53.3131 121.18 50.5508 123.942 50.5508 127.35C50.5508 130.757 53.3131 133.52 56.7207 133.52Z" fill="white" stroke="#00CCCC" stroke-width="3.75" stroke-miterlimit="10" stroke-linecap="round" stroke-linejoin="round"/>
<path d="M87.4541 133.52C90.8617 133.52 93.624 130.757 93.624 127.35C93.624 123.942 90.8617 121.18 87.4541 121.18C84.0466 121.18 81.2842 123.942 81.2842 127.35C81.2842 130.757 84.0466 133.52 87.4541 133.52Z" fill="white" stroke="#00CCCC" stroke-width="3.75" stroke-miterlimit="10" stroke-linecap="round" stroke-linejoin="round"/>
<path d="M67.4023 80.6715L72.6453 75.4285L77.8883 80.6715M77.8883 70.1855L72.6443 75.4285L67.4023 70.1855" stroke="#00CCCC" stroke-width="3.75" stroke-linecap="round" stroke-linejoin="round"/>
</svg>
