<svg width="110" height="110" viewBox="0 0 110 110" fill="none" xmlns="http://www.w3.org/2000/svg">
<path d="M54.8499 3.30014C48.0773 3.28776 41.369 4.61329 35.1101 7.20061C28.8512 9.78794 23.165 13.5861 18.378 18.377C-1.73133 38.4864 -1.73133 71.1976 18.3849 91.307C38.4943 111.41 71.2055 111.41 91.3149 91.307C111.417 71.1976 111.417 38.4864 91.3149 18.377C86.5307 13.5862 80.847 9.788 74.5903 7.20062C68.3336 4.61324 61.6273 3.28769 54.8568 3.30014H54.8499ZM54.8499 10.1339C66.2762 10.1339 77.7024 14.4995 86.4474 23.2376C90.6036 27.3847 93.901 32.3108 96.1509 37.7339C98.4007 43.1571 99.5588 48.9707 99.5588 54.842C99.5588 60.7133 98.4007 66.5269 96.1509 71.9501C93.901 77.3732 90.6036 82.2993 86.4474 86.4464C82.3004 90.6026 77.3742 93.9 71.9511 96.1498C66.528 98.3997 60.7143 99.5577 54.843 99.5577C48.9718 99.5577 43.1581 98.3997 37.735 96.1498C32.3118 93.9 27.3857 90.6026 23.2387 86.4464C19.0825 82.2993 15.7851 77.3732 13.5352 71.9501C11.2854 66.5269 10.1273 60.7133 10.1273 54.842C10.1273 48.9707 11.2854 43.1571 13.5352 37.7339C15.7851 32.3108 19.0825 27.3847 23.2387 23.2376C27.3845 19.0783 32.3114 15.7795 37.7364 13.5307C43.1614 11.2819 48.9773 10.1275 54.8499 10.1339ZM75.1999 41.0851C74.5489 41.1463 73.9288 41.392 73.4124 41.7933L48.2912 60.6308L36.6518 48.9983C36.3347 48.6699 35.9554 48.4081 35.536 48.2279C35.1166 48.0478 34.6655 47.9529 34.2091 47.949C33.7527 47.945 33.3 48.032 32.8776 48.2048C32.4551 48.3776 32.0713 48.6329 31.7486 48.9556C31.4258 49.2784 31.1706 49.6622 30.9977 50.0847C30.8249 50.5071 30.7379 50.9598 30.7419 51.4162C30.7458 51.8726 30.8407 52.3237 31.0208 52.7431C31.201 53.1625 31.4629 53.5418 31.7912 53.8589L45.5412 67.6089C46.1256 68.1935 46.9011 68.548 47.7256 68.6074C48.5501 68.6667 49.3684 68.427 50.0305 67.932L77.5305 47.307C78.1133 46.8823 78.5476 46.2851 78.7722 45.5999C78.9968 44.9147 79.0003 44.1762 78.7821 43.4889C78.5639 42.8017 78.1351 42.2004 77.5564 41.7703C76.9777 41.3401 76.2784 41.1028 75.5574 41.092C75.4406 41.086 75.3236 41.086 75.2068 41.092L75.1999 41.0851Z" fill="#00CCCC"/>
</svg>
