<svg width="24" height="24" viewBox="0 0 24 24" fill="none" xmlns="http://www.w3.org/2000/svg">
<path d="M20.0325 19.9959H3.96753C3.12246 19.9949 2.31228 19.6587 1.71472 19.0612C1.11717 18.4636 0.781022 17.6534 0.780029 16.8084V7.19336C0.781022 6.34829 1.11717 5.53811 1.71472 4.94055C2.31228 4.343 3.12246 4.00685 3.96753 4.00586H20.0325C20.8776 4.00685 21.6878 4.343 22.2853 4.94055C22.8829 5.53811 23.219 6.34829 23.22 7.19336V16.8084C23.219 17.6534 22.8829 18.4636 22.2853 19.0612C21.6878 19.6587 20.8776 19.9949 20.0325 19.9959ZM3.96753 5.13086C3.42052 5.13086 2.89592 5.34816 2.50912 5.73495C2.12233 6.12175 1.90503 6.64635 1.90503 7.19336V16.8084C1.90503 17.3554 2.12233 17.88 2.50912 18.2668C2.89592 18.6536 3.42052 18.8709 3.96753 18.8709H20.0325C20.5795 18.8709 21.1041 18.6536 21.4909 18.2668C21.8777 17.88 22.095 17.3554 22.095 16.8084V7.19336C22.095 6.64635 21.8777 6.12175 21.4909 5.73495C21.1041 5.34816 20.5795 5.13086 20.0325 5.13086H3.96753Z" fill="#1D2E2E"/>
<path d="M11.9999 14.2808C11.306 14.2819 10.6307 14.0568 10.0762 13.6396L1.31993 7.01706C1.25806 6.97364 1.20558 6.9182 1.16562 6.85404C1.12566 6.78989 1.09903 6.71834 1.08734 6.64367C1.07565 6.56899 1.07912 6.49273 1.09756 6.41943C1.116 6.34613 1.14902 6.2773 1.19465 6.21704C1.24028 6.15679 1.29759 6.10635 1.36315 6.06874C1.42871 6.03112 1.50117 6.00711 1.57622 5.99813C1.65127 5.98914 1.72736 5.99538 1.79994 6.01646C1.87252 6.03754 1.94012 6.07303 1.99868 6.12081L10.7549 12.7508C11.1145 13.0192 11.5512 13.1643 11.9999 13.1643C12.4486 13.1643 12.8853 13.0192 13.2449 12.7508L22.0012 6.12081C22.0597 6.07303 22.1273 6.03754 22.1999 6.01646C22.2725 5.99538 22.3486 5.98914 22.4236 5.99813C22.4987 6.00711 22.5712 6.03112 22.6367 6.06874C22.7023 6.10635 22.7596 6.15679 22.8052 6.21704C22.8508 6.2773 22.8839 6.34613 22.9023 6.41943C22.9207 6.49273 22.9242 6.56899 22.9125 6.64367C22.9008 6.71834 22.8742 6.78989 22.8342 6.85404C22.7943 6.9182 22.7418 6.97364 22.6799 7.01706L13.9237 13.6396C13.3692 14.0568 12.6938 14.2819 11.9999 14.2808Z" fill="#1D2E2E"/>
<path d="M1.56381 18.4277C1.44973 18.4279 1.33829 18.3934 1.24428 18.3287C1.15028 18.2641 1.07815 18.1724 1.03747 18.0658C0.996785 17.9592 0.989475 17.8428 1.01651 17.732C1.04354 17.6211 1.10363 17.5211 1.18882 17.4452L8.08881 11.2915C8.20021 11.192 8.34654 11.1409 8.49563 11.1493C8.64473 11.1578 8.78436 11.2251 8.88381 11.3365C8.98327 11.4479 9.0344 11.5942 9.02596 11.7433C9.01753 11.8924 8.95021 12.032 8.83881 12.1315L1.93881 18.2852C1.83635 18.3785 1.70234 18.4294 1.56381 18.4277ZM22.4363 18.4277C22.2978 18.4294 22.1638 18.3785 22.0613 18.2852L15.1613 12.1315C15.0499 12.032 14.9826 11.8924 14.9742 11.7433C14.9657 11.5942 15.0169 11.4479 15.1163 11.3365C15.2158 11.2251 15.3554 11.1578 15.5045 11.1493C15.6536 11.1409 15.7999 11.192 15.9113 11.2915L22.8076 17.4452C22.8927 17.5211 22.9528 17.6211 22.9799 17.732C23.0069 17.8428 22.9996 17.9592 22.9589 18.0658C22.9182 18.1724 22.8461 18.2641 22.7521 18.3287C22.6581 18.3934 22.5466 18.4279 22.4326 18.4277H22.4363Z" fill="#1D2E2E"/>
</svg>
