<svg width="180" height="233" viewBox="0 0 180 233" fill="none" xmlns="http://www.w3.org/2000/svg">
<circle cx="90" cy="90.7075" r="90" fill="#EBFFFF"/>
<rect x="54.4437" y="88.6037" width="88.6294" height="123.874" rx="7" transform="rotate(2.5 54.4437 88.6037)" fill="#00CCCC" stroke="#00A3A3" stroke-width="2"/>
<rect x="2.59287" y="81.7172" width="92.6294" height="127.874" rx="9" transform="rotate(-7.5 2.59287 81.7172)" fill="#FAFAFA" stroke="#00A3A3" stroke-width="2"/>
<path d="M4.75905 90.5097C4.18235 86.1292 7.26592 82.1106 11.6464 81.5339L85.6373 71.7928C90.0178 71.2161 94.0364 74.2997 94.6131 78.6802L97.3477 99.452L7.49371 111.281L4.75905 90.5097Z" fill="#00CCCC"/>
<rect x="113.137" y="74.5244" width="3.77622" height="12.5874" rx="1.88811" transform="rotate(82.5 113.137 74.5244)" fill="#00CCCC"/>
<rect x="78.625" y="53.6729" width="3.77622" height="12.5874" rx="1.88811" transform="rotate(-7.5 78.625 53.6729)" fill="#00CCCC"/>
<rect x="100.75" y="57.1089" width="3.77622" height="12.5874" rx="1.88811" transform="rotate(37.5 100.75 57.1089)" fill="#00CCCC"/>
<rect x="16.8945" y="115.125" width="73.007" height="5.03496" rx="2" transform="rotate(-7.5 16.8945 115.125)" fill="#00CCCC"/>
<rect x="20.1836" y="140.084" width="73.007" height="5.03496" rx="2" transform="rotate(-7.5 20.1836 140.084)" fill="#00CCCC"/>
<rect x="23.457" y="165.044" width="73.007" height="5.03496" rx="2" transform="rotate(-7.5 23.457 165.044)" fill="#00CCCC"/>
<rect x="18.1953" y="125.106" width="26.4336" height="5.03496" rx="2" transform="rotate(-7.5 18.1953 125.106)" fill="#D5FFFF"/>
<rect x="21.4883" y="150.066" width="26.4336" height="5.03496" rx="2" transform="rotate(-7.5 21.4883 150.066)" fill="#D5FFFF"/>
<rect x="24.7734" y="175.025" width="26.4336" height="5.03496" rx="2" transform="rotate(-7.5 24.7734 175.025)" fill="#D5FFFF"/>
</svg>
