<svg width="180" height="194" viewBox="0 0 180 194" fill="none" xmlns="http://www.w3.org/2000/svg">
<path d="M90 180.6C139.706 180.6 180 140.306 180 90.6001C180 40.8945 139.706 0.600098 90 0.600098C40.2944 0.600098 0 40.8945 0 90.6001C0 140.306 40.2944 180.6 90 180.6Z" fill="#EBFFFF"/>
<g filter="url(#filter0_d_12436_6933)">
<path d="M141.602 52.2H38.4016C35.0879 52.2 32.4016 54.8862 32.4016 58.2V184.2C32.4016 187.514 35.0879 190.2 38.4016 190.2H141.602C144.915 190.2 147.602 187.514 147.602 184.2V58.2C147.602 54.8862 144.915 52.2 141.602 52.2Z" fill="white"/>
</g>
<path d="M78.0007 70.2H46.8007C44.8125 70.2 43.2007 71.8117 43.2007 73.8C43.2007 75.7882 44.8125 77.4 46.8007 77.4H78.0007C79.9889 77.4 81.6007 75.7882 81.6007 73.8C81.6007 71.8117 79.9889 70.2 78.0007 70.2Z" fill="#D5FEFF"/>
<path d="M99.6007 85.8H46.8007C44.8125 85.8 43.2007 87.4118 43.2007 89.4C43.2007 91.3883 44.8125 93 46.8007 93H99.6007C101.589 93 103.201 91.3883 103.201 89.4C103.201 87.4118 101.589 85.8 99.6007 85.8Z" fill="#00CCCC"/>
<path d="M78.0007 102.6H46.8007C44.8125 102.6 43.2007 104.212 43.2007 106.2C43.2007 108.188 44.8125 109.8 46.8007 109.8H78.0007C79.9889 109.8 81.6007 108.188 81.6007 106.2C81.6007 104.212 79.9889 102.6 78.0007 102.6Z" fill="#D5FFFF"/>
<path d="M99.6007 118.2H46.8007C44.8125 118.2 43.2007 119.812 43.2007 121.8C43.2007 123.788 44.8125 125.4 46.8007 125.4H99.6007C101.589 125.4 103.201 123.788 103.201 121.8C103.201 119.812 101.589 118.2 99.6007 118.2Z" fill="#00CCCC"/>
<path d="M78.0007 135H46.8007C44.8125 135 43.2007 136.612 43.2007 138.6C43.2007 140.588 44.8125 142.2 46.8007 142.2H78.0007C79.9889 142.2 81.6007 140.588 81.6007 138.6C81.6007 136.612 79.9889 135 78.0007 135Z" fill="#D5FFFF"/>
<path d="M99.6007 150.6H46.8007C44.8125 150.6 43.2007 152.212 43.2007 154.2C43.2007 156.188 44.8125 157.8 46.8007 157.8H99.6007C101.589 157.8 103.201 156.188 103.201 154.2C103.201 152.212 101.589 150.6 99.6007 150.6Z" fill="#00CCCC"/>
<defs>
<filter id="filter0_d_12436_6933" x="26.4016" y="43.2" width="127.2" height="150" filterUnits="userSpaceOnUse" color-interpolation-filters="sRGB">
<feFlood flood-opacity="0" result="BackgroundImageFix"/>
<feColorMatrix in="SourceAlpha" type="matrix" values="0 0 0 0 0 0 0 0 0 0 0 0 0 0 0 0 0 0 127 0" result="hardAlpha"/>
<feOffset dy="-3"/>
<feGaussianBlur stdDeviation="3"/>
<feColorMatrix type="matrix" values="0 0 0 0 0.788235 0 0 0 0 0.803922 0 0 0 0 0.85098 0 0 0 0.349 0"/>
<feBlend mode="normal" in2="BackgroundImageFix" result="effect1_dropShadow_12436_6933"/>
<feBlend mode="normal" in="SourceGraphic" in2="effect1_dropShadow_12436_6933" result="shape"/>
</filter>
</defs>
</svg>
