<svg width="24" height="25" viewBox="0 0 24 25" fill="none" xmlns="http://www.w3.org/2000/svg">
<path d="M12.0001 21.2785C7.0501 21.2785 3.0376 17.266 3.0376 12.316C3.0376 7.36601 7.0501 3.35352 12.0001 3.35352C16.9501 3.35352 20.9626 7.36601 20.9626 12.316C20.9626 17.266 16.9501 21.2785 12.0001 21.2785ZM12.0001 4.32852C7.6126 4.32852 4.0126 7.92851 4.0126 12.316C4.0126 16.7035 7.6126 20.3035 12.0001 20.3035C16.3876 20.3035 19.9876 16.7035 19.9876 12.316C19.9876 7.92851 16.3876 4.32852 12.0001 4.32852Z" fill="#1D2E2E"/>
<path d="M11.8127 17.4527L11.1377 16.7402L15.5252 12.3152L11.1377 7.89024L11.8127 7.17773L16.9502 12.3152L11.8127 17.4527Z" fill="#1D2E2E"/>
<path d="M16.2378 12.841H7.23779V11.791H16.2378V12.841Z" fill="#1D2E2E"/>
</svg>
