<svg width="32" height="32" viewBox="0 0 32 32" fill="none" xmlns="http://www.w3.org/2000/svg">
<path d="M29.1251 10.0781H2.87509L3.31259 10.5156V8.79682L3.09591 9.17457L5.66613 7.88657L10.9747 5.22632L15.4186 2.99942L16.1915 2.61207H15.7498L18.3187 3.89364L23.6329 6.54476L28.1038 8.77517L28.9043 9.17454L28.6876 8.79679V10.5155C28.6876 10.754 28.8866 10.953 29.1251 10.953C29.3636 10.953 29.5626 10.754 29.5626 10.5155V8.79679C29.5626 8.65063 29.4812 8.48651 29.3459 8.41904L26.777 7.13748L21.4628 4.48635L16.992 2.25595L16.1943 1.85798C15.9773 1.74973 15.8124 1.8252 15.6278 1.91773L15.1625 2.15092L10.9141 4.27989L5.54878 6.96857L2.66959 8.41138L2.65428 8.41907C2.51906 8.48682 2.43759 8.65045 2.43759 8.79682V10.5156C2.43759 10.7541 2.63659 10.9531 2.87509 10.9531H29.1251C29.3636 10.9531 29.5626 10.7541 29.5626 10.5156C29.5626 10.2771 29.3636 10.0781 29.1251 10.0781ZM29.6407 29.3281H2.35941L2.79691 29.7656V27.0995L2.35941 27.537H29.6407L29.2032 27.0995V29.7656C29.2032 30.0041 29.4022 30.2031 29.6407 30.2031C29.8792 30.2031 30.0782 30.0041 30.0782 29.7656V27.0995C30.0782 26.861 29.8792 26.662 29.6407 26.662H2.35938C2.12088 26.662 1.92188 26.861 1.92188 27.0995V29.7656C1.92188 30.0041 2.12088 30.2031 2.35938 30.2031H29.6407C29.8792 30.2031 30.0782 30.0041 30.0782 29.7656C30.0782 29.5271 29.8792 29.3281 29.6407 29.3281ZM7.56259 24.7343H4.18759L4.62509 25.1718L4.70453 21.9632L4.85338 15.9501C4.88144 14.8157 4.90953 13.6813 4.93763 12.5468L4.50013 12.9843H7.25013L6.81263 12.5468L6.89206 15.7554L7.04091 21.7685L7.12503 25.1668L7.12516 25.1718C7.13106 25.4102 7.31972 25.6093 7.56266 25.6093C7.79669 25.6093 8.00606 25.4103 8.00016 25.1718L7.92072 21.9632L7.77188 15.9501C7.74381 14.8157 7.71572 13.6812 7.68763 12.5468C7.68172 12.3084 7.49306 12.1093 7.25013 12.1093H4.50013C4.25719 12.1093 4.06853 12.3084 4.06263 12.5468L3.98319 15.7554L3.83434 21.7685L3.75022 25.1668C3.75019 25.1684 3.75015 25.1701 3.75009 25.1718C3.74419 25.4103 3.95356 25.6093 4.18759 25.6093H7.56259C7.80109 25.6093 8.00009 25.4103 8.00009 25.1718C8.00009 24.9333 7.80109 24.7343 7.56259 24.7343ZM27.8126 24.7343H24.4376L24.8751 25.1718L24.9545 21.9632L25.1034 15.9501C25.1314 14.8174 25.1594 13.6846 25.1875 12.5518L25.1876 12.5468L24.7501 12.9843H27.5001L27.0626 12.5468L27.142 15.7554L27.2909 21.7685L27.375 25.1668L27.3751 25.1718C27.381 25.4102 27.5697 25.6093 27.8126 25.6093C28.0466 25.6093 28.256 25.4103 28.2501 25.1718L28.1707 21.9632L28.0218 15.9501C27.9938 14.8173 27.9658 13.6846 27.9377 12.5518L27.9376 12.5468C27.9317 12.3084 27.743 12.1093 27.5001 12.1093H24.7501C24.5072 12.1093 24.3185 12.3084 24.3126 12.5468L24.2332 15.7554L24.0843 21.7685L24.0002 25.1668L24.0001 25.1718C23.9942 25.4103 24.2036 25.6093 24.4376 25.6093L27.8126 25.6093C28.0511 25.6093 28.2501 25.4103 28.2501 25.1718C28.2501 24.9333 28.0511 24.7343 27.8126 24.7343Z" fill="#00B8B8"/>
<path d="M17.0389 6.91909C17.0383 6.96235 17.0364 7.00557 17.0333 7.04872C17.0234 7.18544 17.0498 6.96725 17.0246 7.10034C17.0091 7.18212 16.9832 7.26156 16.954 7.33937C16.9855 7.25525 16.9338 7.37669 16.9301 7.38403C16.9116 7.42041 16.8902 7.45512 16.8688 7.48978C16.865 7.49584 16.7876 7.60378 16.8427 7.53319C16.8095 7.57578 16.7722 7.61509 16.7346 7.65375C16.7063 7.68278 16.6758 7.70944 16.6453 7.73606C16.547 7.82178 16.7118 7.69109 16.6046 7.76566C16.5376 7.81228 16.4651 7.85041 16.3914 7.88528C16.4728 7.84675 16.3501 7.89844 16.3425 7.90103C16.303 7.91453 16.2626 7.92462 16.2222 7.93472C16.2144 7.93666 16.0791 7.96031 16.1721 7.94816C16.115 7.95562 16.0574 7.95728 15.9999 7.95809C15.9567 7.95872 15.9134 7.95559 15.8703 7.95247C15.7336 7.94256 15.9517 7.96897 15.8187 7.94372C15.7369 7.92819 15.6575 7.90228 15.5797 7.87319C15.6638 7.90466 15.5423 7.85297 15.535 7.84922C15.4986 7.83075 15.4639 7.80931 15.4292 7.78794C15.4232 7.78419 15.3152 7.70675 15.3858 7.76184C15.3432 7.72859 15.3039 7.69141 15.2653 7.65375C15.2362 7.6255 15.2096 7.59494 15.183 7.56444C15.0973 7.46616 15.228 7.63094 15.1534 7.52378C15.1067 7.45672 15.0687 7.38422 15.0338 7.31056C15.0723 7.392 15.0206 7.26922 15.018 7.26159C15.0045 7.22216 14.9944 7.18169 14.9843 7.14131C14.9824 7.13359 14.9587 6.99825 14.9709 7.09125C14.9634 7.03419 14.9618 6.97653 14.961 6.91906C14.9603 6.87578 14.9635 6.83253 14.9666 6.78941C14.9765 6.65269 14.9501 6.87087 14.9753 6.73781C14.9909 6.656 15.0167 6.57659 15.0459 6.49878C15.0144 6.58291 15.0661 6.46147 15.0698 6.45412C15.0883 6.41775 15.1097 6.38303 15.1311 6.34837C15.1349 6.34231 15.2123 6.23437 15.1572 6.30497C15.1904 6.26237 15.2277 6.22306 15.2653 6.18441C15.2935 6.15537 15.3241 6.12872 15.3546 6.10212C15.4529 6.01641 15.2881 6.14709 15.3952 6.07253C15.4623 6.02587 15.5348 5.98778 15.6085 5.95291C15.527 5.99144 15.6498 5.93975 15.6574 5.93716C15.6968 5.92366 15.7373 5.91356 15.7777 5.90347C15.7854 5.90153 15.9208 5.87787 15.8278 5.89003C15.8849 5.88256 15.9425 5.88091 16 5.88009C16.0432 5.87947 16.0865 5.88259 16.1296 5.88572C16.2663 5.89562 16.0482 5.86922 16.1812 5.89447C16.263 5.91 16.3424 5.93587 16.4202 5.965C16.3361 5.93353 16.4575 5.98522 16.4649 5.98897C16.5012 6.00741 16.536 6.02884 16.5707 6.05025C16.5767 6.054 16.6847 6.13144 16.6141 6.07634C16.6567 6.10956 16.696 6.14678 16.7346 6.18441C16.7637 6.21266 16.7903 6.24322 16.8169 6.27372C16.9027 6.372 16.772 6.20719 16.8465 6.31437C16.8932 6.38144 16.9312 6.45394 16.9661 6.52759C16.9276 6.44616 16.9793 6.56894 16.9819 6.57656C16.9954 6.61597 17.0055 6.65644 17.0156 6.69684C17.0175 6.70456 17.0412 6.83991 17.029 6.74691C17.0365 6.80397 17.0381 6.86162 17.0389 6.91909C17.0424 7.15753 17.2353 7.35659 17.4764 7.35659C17.7123 7.35659 17.9174 7.15759 17.9139 6.91909C17.9017 6.07706 17.3669 5.36447 16.5751 5.09341C15.7689 4.81744 14.9082 5.17866 14.421 5.83944C13.9207 6.51816 14.0117 7.477 14.5135 8.12C15.006 8.75109 15.9048 8.99681 16.6528 8.71697C17.4069 8.43481 17.9023 7.72337 17.9139 6.91916C17.9173 6.68066 17.7123 6.48166 17.4764 6.48166C17.2353 6.48159 17.0424 6.68066 17.0389 6.91909ZM18.7142 16.0501C18.7134 16.202 18.703 16.3529 18.6847 16.5037C18.6972 16.4 18.6797 16.5299 18.6776 16.5428C18.6713 16.5821 18.664 16.6212 18.6566 16.6604C18.6391 16.7532 18.6175 16.8452 18.5945 16.9368C18.5539 17.0978 18.5032 17.2562 18.4472 17.4124C18.3737 17.6176 18.3547 17.6566 18.259 17.8529C18.1845 18.0057 18.1012 18.1541 18.0125 18.2991C17.9684 18.3711 17.9217 18.4415 17.8741 18.5112C17.8504 18.5459 17.8259 18.58 17.8013 18.614C17.785 18.6366 17.7684 18.6589 17.7516 18.6812C17.7778 18.6478 17.7751 18.6511 17.7434 18.6912C17.6419 18.8195 17.5318 18.9409 17.416 19.0565C17.3595 19.113 17.3004 19.1667 17.2404 19.2193C17.2108 19.2453 17.1803 19.2703 17.1499 19.2952C17.1103 19.3266 17.1091 19.3277 17.1461 19.2987C17.1254 19.3142 17.1046 19.3294 17.0836 19.3444C16.9606 19.4332 16.8295 19.5101 16.6937 19.5774C16.6812 19.5837 16.5679 19.6342 16.6631 19.5941C16.6292 19.6084 16.5947 19.6211 16.5601 19.6337C16.4801 19.6631 16.3979 19.6857 16.3151 19.7053C16.2797 19.7137 16.2439 19.7201 16.2081 19.7266C16.088 19.7482 16.3017 19.7174 16.1802 19.7302C16.1073 19.7378 16.0339 19.7393 15.9607 19.7386C15.9241 19.7382 15.8875 19.7357 15.851 19.7333C15.8333 19.7321 15.7122 19.7166 15.8226 19.7324C15.7386 19.7204 15.6558 19.7007 15.574 19.6783C15.5033 19.659 15.4343 19.6342 15.366 19.6079C15.2514 19.5638 15.4468 19.645 15.3347 19.5935C15.3008 19.5779 15.2677 19.5608 15.2345 19.5438C15.1673 19.5092 15.1025 19.4702 15.0385 19.4302C15.006 19.4098 14.9744 19.3882 14.9428 19.3666C14.9296 19.3575 14.8026 19.2628 14.8756 19.3197C14.7499 19.2218 14.6333 19.1128 14.522 18.9991C14.4648 18.9408 14.4104 18.88 14.3568 18.8184C14.3297 18.7872 14.3036 18.7553 14.2774 18.7235C14.2599 18.702 14.2427 18.6804 14.2257 18.6587C14.2517 18.6922 14.2492 18.6886 14.2183 18.6477C14.0069 18.3651 13.8304 18.0571 13.6809 17.7378C13.6629 17.6994 13.6458 17.6605 13.6287 17.6216C13.6638 17.7015 13.6092 17.5739 13.6076 17.5699C13.5762 17.4918 13.5474 17.4127 13.5197 17.3333C13.4606 17.1645 13.4122 16.9921 13.3715 16.8181C13.3532 16.7399 13.338 16.661 13.3238 16.582C13.3169 16.5431 13.311 16.504 13.3051 16.465C13.3206 16.5676 13.3027 16.4401 13.3012 16.4267C13.2824 16.2581 13.2775 16.0885 13.2832 15.9191C13.2862 15.8328 13.2944 15.7467 13.3043 15.661C13.2936 15.7538 13.3129 15.6156 13.3141 15.6087C13.3213 15.5671 13.3301 15.5257 13.3389 15.4843C13.3767 15.3074 13.4333 15.1349 13.5009 14.9673C13.4671 15.0511 13.5208 14.9269 13.5236 14.9209C13.541 14.8836 13.5598 14.8471 13.5787 14.8105C13.6162 14.7376 13.658 14.667 13.7011 14.5973C13.744 14.5278 13.791 14.4609 13.8392 14.395C13.918 14.2871 13.7869 14.4587 13.8711 14.3551C13.9054 14.313 13.9415 14.2724 13.9779 14.2321C14.0871 14.1112 14.2076 14.001 14.3339 13.8982C14.2648 13.9544 14.3698 13.8718 14.3752 13.8679C14.4083 13.844 14.4418 13.8208 14.4759 13.7982C14.5551 13.7448 14.6377 13.6967 14.7215 13.6508C14.9806 13.5087 15.2796 13.41 15.64 13.3532C15.5475 13.3678 15.687 13.3486 15.6937 13.3479C15.7367 13.3435 15.7798 13.3409 15.823 13.3382C15.9102 13.3329 15.9977 13.3329 16.0851 13.3347C16.1717 13.3365 16.258 13.3435 16.3441 13.3523C16.4837 13.3666 16.2592 13.3381 16.397 13.3598C16.4528 13.3686 16.5082 13.38 16.5633 13.3918C16.7268 13.4267 16.8864 13.4779 17.042 13.5383C17.1683 13.5874 16.9662 13.5035 17.0894 13.5591C17.127 13.576 17.1638 13.5943 17.2007 13.6127C17.2741 13.6493 17.3453 13.6902 17.4156 13.7324C17.4857 13.7744 17.5532 13.8206 17.6198 13.8679C17.625 13.8717 17.7309 13.9536 17.661 13.8982C17.6929 13.9235 17.7239 13.9501 17.7548 13.9765C17.8888 14.0914 18.0107 14.2197 18.1238 14.3551C18.2093 14.4576 18.0755 14.2881 18.1557 14.395C18.1802 14.4276 18.2035 14.4612 18.2267 14.4947C18.2733 14.562 18.3159 14.6319 18.3571 14.7026C18.3984 14.7735 18.4356 14.8469 18.4713 14.9208C18.4741 14.9267 18.529 15.0507 18.494 14.9672C18.51 15.0055 18.5245 15.0443 18.539 15.0831C18.5976 15.2402 18.6403 15.4027 18.673 15.567C18.6814 15.6087 18.688 15.6507 18.6946 15.6927C18.68 15.6002 18.6991 15.7396 18.6998 15.7463C18.7102 15.8472 18.7135 15.9487 18.7142 16.0501C18.7159 16.2886 18.912 16.4876 19.1517 16.4876C19.389 16.4876 19.5909 16.2886 19.5892 16.0501C19.5787 14.5001 18.5793 13.1388 17.1187 12.6375C16.4042 12.3923 15.5912 12.4027 14.8762 12.6375C14.1477 12.8768 13.5411 13.3442 13.0836 13.9533C12.6354 14.55 12.4106 15.3085 12.4056 16.0501C12.4007 16.7741 12.6136 17.4864 12.9076 18.1408C13.4612 19.3727 14.6087 20.6546 16.0709 20.6125C17.1465 20.5815 18.0141 19.823 18.6056 18.9874C19.1997 18.1482 19.5834 17.083 19.5892 16.0501C19.5906 15.8116 19.3892 15.6126 19.1517 15.6126C18.9122 15.6126 18.7156 15.8117 18.7142 16.0501ZM21.8851 24.5688V27.1012L22.3226 26.6637H9.67725L10.1147 27.1012V24.7862C10.1147 24.2934 10.1411 23.9626 10.33 23.4819C10.2971 23.5657 10.3486 23.4405 10.3513 23.4345C10.3683 23.397 10.3868 23.3601 10.4052 23.3232C10.442 23.2498 10.483 23.1785 10.5252 23.108C10.5674 23.0378 10.6134 22.9701 10.6607 22.9033C10.6643 22.8982 10.7459 22.7917 10.6908 22.8616C10.7245 22.8189 10.76 22.7776 10.7957 22.7366C11.0452 22.4502 11.2191 22.3151 11.5258 22.1363C11.6326 22.0741 11.7439 22.0201 11.8571 21.9705C11.7794 22.0045 11.9312 21.944 11.9456 21.9387C12.011 21.915 12.0776 21.8946 12.1443 21.8752C12.2661 21.8397 12.3903 21.8138 12.5153 21.7929C12.568 21.7851 12.5715 21.7844 12.526 21.7908C12.5688 21.7854 12.6117 21.7817 12.6546 21.7779C12.7269 21.7717 12.7995 21.7693 12.872 21.7679C13.1387 21.7625 13.4059 21.7676 13.6727 21.7676C13.5696 21.7248 13.4664 21.6822 13.3633 21.6394L15.7002 24.5547C15.8379 24.7265 16.1815 24.7277 16.3189 24.5547L18.6366 21.6394C18.5334 21.6821 18.4303 21.7248 18.3272 21.7676C18.5941 21.7676 18.861 21.7661 19.1279 21.7679C19.186 21.7682 19.2441 21.7713 19.3021 21.7748C19.3309 21.7767 19.3596 21.779 19.3883 21.7817C19.3947 21.7822 19.5351 21.7995 19.4424 21.7865C19.5821 21.8061 19.7198 21.8375 19.8556 21.8752C19.9093 21.8901 19.9622 21.9074 20.0151 21.9251C20.0413 21.934 20.0675 21.9433 20.0935 21.953C20.0992 21.9551 20.2261 22.0057 20.1429 21.9705C20.2693 22.024 20.3911 22.0879 20.5096 22.157C20.9228 22.3979 21.2504 22.7343 21.4958 23.1432C21.5593 23.2492 21.6147 23.3597 21.6657 23.4721C21.6864 23.5193 21.6878 23.5226 21.67 23.4819C21.6857 23.5204 21.6998 23.5594 21.714 23.5985C21.7378 23.6639 21.7581 23.7305 21.7776 23.7972C21.8171 23.9326 21.8448 24.0711 21.8662 24.2104C21.8602 24.1647 21.8604 24.1685 21.8668 24.2217C21.8717 24.2646 21.8748 24.3076 21.8779 24.3507C21.8832 24.4232 21.8847 24.496 21.8851 24.5688C21.8867 24.8073 22.0829 25.0063 22.3226 25.0063C22.5599 25.0063 22.7617 24.8073 22.7601 24.5688C22.7498 23.0137 21.7718 21.6559 20.3261 21.1092C19.7685 20.8984 19.1857 20.8926 18.5995 20.8926C18.4017 20.8926 18.1464 20.859 18.0075 21.0338L17.8221 21.2669L15.7002 23.9361H16.3189L14.9565 22.2365L14.1551 21.2367L13.9873 21.0274C13.8444 20.8492 13.5436 20.8926 13.3402 20.8926C12.7431 20.8926 12.1608 20.9173 11.5964 21.1391C10.884 21.4191 10.2923 21.8994 9.85834 22.5288C9.45068 23.1201 9.23975 23.8552 9.23975 24.5708V27.1012C9.23975 27.3397 9.43875 27.5387 9.67725 27.5387H22.3226C22.5611 27.5387 22.7601 27.3397 22.7601 27.1012V24.5688C22.7601 24.3303 22.5611 24.1313 22.3226 24.1313C22.0841 24.1313 21.8851 24.3303 21.8851 24.5688Z" fill="#00B8B8"/>
</svg>
