<svg width="24" height="24" viewBox="0 0 24 24" fill="none" xmlns="http://www.w3.org/2000/svg">
<path d="M5.15789 4H18.8421C19.6796 4 20.4829 4.33271 21.0751 4.92493C21.6673 5.51715 22 6.32037 22 7.15789V16.6316C22 17.4691 21.6673 18.2723 21.0751 18.8645C20.4829 19.4568 19.6796 19.7895 18.8421 19.7895H5.15789C4.32037 19.7895 3.51715 19.4568 2.92493 18.8645C2.33271 18.2723 2 17.4691 2 16.6316V7.15789C2 6.32037 2.33271 5.51715 2.92493 4.92493C3.51715 4.33271 4.32037 4 5.15789 4ZM5.15789 5.05263C4.63158 5.05263 4.16842 5.23158 3.81053 5.54737L12 10.8421L20.1895 5.54737C19.8316 5.23158 19.3684 5.05263 18.8421 5.05263H5.15789ZM12 12.1158L3.18947 6.4C3.10526 6.63158 3.05263 6.89474 3.05263 7.15789V16.6316C3.05263 17.1899 3.27444 17.7254 3.66925 18.1202C4.06406 18.515 4.59954 18.7368 5.15789 18.7368H18.8421C19.4005 18.7368 19.9359 18.515 20.3308 18.1202C20.7256 17.7254 20.9474 17.1899 20.9474 16.6316V7.15789C20.9474 6.89474 20.8947 6.63158 20.8105 6.4L12 12.1158Z" fill="#1D2E2E"/>
</svg>
