<svg width="20" height="20" viewBox="0 0 20 20" fill="none" xmlns="http://www.w3.org/2000/svg">
<path d="M15.8337 1.66675H4.16699C2.78689 1.66827 1.66852 2.78664 1.66699 4.16675V11.7237V15.8334C1.66852 17.2135 2.78689 18.3319 4.16699 18.3334H15.8337C15.9856 18.3332 16.1354 18.3151 16.2833 18.2876C16.3384 18.2776 16.3909 18.2624 16.4447 18.2487C16.533 18.2261 16.6197 18.1998 16.7051 18.1677C16.7671 18.1445 16.8277 18.1201 16.8873 18.0922C16.9573 18.0592 17.0242 18.021 17.091 17.9815C17.1537 17.9447 17.217 17.9102 17.276 17.8682C17.2809 17.8648 17.2863 17.8625 17.2912 17.859C17.2974 17.8545 17.3027 17.8489 17.3087 17.8441C17.3201 17.8349 17.3344 17.8304 17.3448 17.82C17.3503 17.8144 17.3521 17.807 17.3572 17.8012C17.9466 17.3439 18.3328 16.637 18.3337 15.8334V13.392V4.16675C18.3321 2.78664 17.2138 1.66827 15.8337 1.66675ZM16.3128 17.4212C16.1573 17.4694 15.9966 17.5 15.8337 17.5001H4.16699C3.24699 17.4989 2.5015 16.7534 2.50033 15.8334V11.8962L5.6359 8.76066C6.20592 8.19263 7.12806 8.19263 7.69808 8.76066L10.5355 11.5978C10.537 11.5994 10.5374 11.6016 10.5391 11.6032L16.3466 17.4107C16.3354 17.4144 16.3241 17.4178 16.3128 17.4212ZM17.5003 15.8334C17.4998 16.2637 17.332 16.6519 17.0641 16.9476L11.4238 11.3077L12.3034 10.4281C12.8794 9.87638 13.7879 9.87638 14.3639 10.4281L17.5003 13.5645V15.8334ZM17.5003 12.3861L14.9531 9.83895C14.0583 8.94539 12.609 8.94539 11.7142 9.83895L10.8346 10.7186L8.28727 8.17147C7.39189 7.27791 5.9421 7.27791 5.04671 8.17147L2.50033 10.7179V4.16675C2.5015 3.24674 3.24699 2.50125 4.16699 2.50008H15.8337C16.7537 2.50125 17.4992 3.24674 17.5003 4.16675V12.3861ZM11.2503 5.00008C10.56 5.00008 10.0003 5.55972 10.0003 6.25008C10.0003 6.94044 10.56 7.50008 11.2503 7.50008C11.9404 7.49932 12.4996 6.94013 12.5003 6.25008C12.5003 5.55972 11.9407 5.00008 11.2503 5.00008ZM11.2503 6.66675C11.0202 6.66675 10.8337 6.48018 10.8337 6.25008C10.8337 6.01998 11.0202 5.83341 11.2503 5.83341C11.4803 5.83387 11.6665 6.02013 11.667 6.25008C11.667 6.48018 11.4804 6.66675 11.2503 6.66675Z" fill="white"/>
</svg>
