<svg width="290" height="290" viewBox="0 0 290 290" fill="none" xmlns="http://www.w3.org/2000/svg">
<g clip-path="url(#clip0_8645_4267)">
<path d="M72.8594 51.645C70.3906 51.645 68.0229 52.7691 66.2772 54.7699C64.5315 56.7708 63.5508 59.4845 63.5508 62.3142V104.991H110.094V51.645H72.8594ZM98.4582 91.6543H75.1866V64.9814H98.4582V91.6543Z" fill="#1D2E2E"/>
<path d="M63.5508 227.686C63.5508 230.515 64.5315 233.229 66.2772 235.23C68.0229 237.231 70.3906 238.355 72.8594 238.355H110.094V185.009H63.5508V227.686ZM75.1866 198.346H98.4582V225.019H75.1866V198.346Z" fill="#1D2E2E"/>
<path d="M179.906 238.355H217.141C219.61 238.355 221.977 237.231 223.723 235.23C225.469 233.229 226.449 230.515 226.449 227.686V185.009H179.906V238.355ZM191.542 198.346H214.814V225.019H191.542V198.346Z" fill="#1D2E2E"/>
<path d="M217.141 51.645H179.906V104.991H226.449V62.3142C226.449 59.4845 225.469 56.7708 223.723 54.7699C221.977 52.7691 219.61 51.645 217.141 51.645ZM214.814 91.6543H191.542V64.9814H214.814V91.6543Z" fill="#1D2E2E"/>
<path d="M156.635 91.6543V78.3179H133.363V104.991H144.999V91.6543H156.635Z" fill="#1D2E2E"/>
<path d="M110.094 104.991H121.73V118.327H110.094V104.991Z" fill="#1D2E2E"/>
<path d="M121.727 118.327H144.998V131.664H121.727V118.327Z" fill="#1D2E2E"/>
<path d="M156.634 64.9814V78.3178H168.27V51.645H121.727V78.3178H133.362V64.9814H156.634Z" fill="#1D2E2E"/>
<path d="M63.5508 118.327H75.1866V145H63.5508V118.327Z" fill="#1D2E2E"/>
<path d="M110.094 131.664V145H98.4582V118.327H86.8224V145H75.1866V158.336H63.5508V171.673H86.8224V158.336H98.4582V171.673H110.094V158.336H121.73V131.664H110.094Z" fill="#1D2E2E"/>
<path d="M156.636 131.664H168.272V145H179.907V131.664H191.543V118.327H168.272V91.6543H156.636V104.991H145V118.327H156.636V131.664Z" fill="#1D2E2E"/>
<path d="M144.998 225.019H121.727V238.355H168.27V225.019H156.634V211.682H144.998V225.019Z" fill="#1D2E2E"/>
<path d="M168.271 158.336V145H156.635V131.664H144.999V145H133.363V158.336H144.999V171.673H156.635V158.336H168.271Z" fill="#1D2E2E"/>
<path d="M214.812 158.336H226.448V171.673H214.812V158.336Z" fill="#1D2E2E"/>
<path d="M168.27 158.336H203.177V171.673H168.27V158.336Z" fill="#1D2E2E"/>
<path d="M214.815 118.327H203.179V131.664H191.543V145H203.179V158.336H214.815V145H226.45V131.664H214.815V118.327Z" fill="#1D2E2E"/>
<path d="M156.637 171.673H168.273V211.682H156.637V171.673Z" fill="#1D2E2E"/>
<path d="M121.727 211.682H133.362V198.346H144.998V185.009H133.362V158.336H121.727V211.682Z" fill="#1D2E2E"/>
</g>
<path d="M259.79 202.396V238.646C259.79 250.325 250.323 259.792 238.645 259.792H202.395M259.79 87.6043V51.3543C259.79 39.6758 250.323 30.2085 238.645 30.2085H202.395M87.6029 259.792H51.3529C39.6743 259.792 30.207 250.325 30.207 238.646V202.396M30.207 87.6043V51.3543C30.207 39.6758 39.6743 30.2085 51.3529 30.2085H87.6029" stroke="#00CCCC" stroke-width="10" stroke-linecap="round" stroke-linejoin="round"/>
<defs>
<clipPath id="clip0_8645_4267">
<rect width="209.444" height="240.056" fill="white" transform="translate(40.2773 24.9722)"/>
</clipPath>
</defs>
</svg>
