<svg width="20" height="20" viewBox="0 0 20 20" fill="none" xmlns="http://www.w3.org/2000/svg">
<path d="M15.7895 10C15.7895 10.2895 15.5526 10.5263 15.2632 10.5263H4.73684C4.44737 10.5263 4.21053 10.2895 4.21053 10C4.21053 9.71053 4.44737 9.47368 4.73684 9.47368H15.2632C15.5526 9.47368 15.7895 9.71053 15.7895 10ZM20 10C20 15.5263 15.5263 20 10 20C4.47368 20 0 15.5263 0 10C0 4.47368 4.47368 0 10 0C15.5263 0 20 4.47368 20 10ZM18.9474 10C18.9474 5.05263 14.9474 1.05263 10 1.05263C5.05263 1.05263 1.05263 5.05263 1.05263 10C1.05263 14.9474 5.05263 18.9474 10 18.9474C14.9474 18.9474 18.9474 14.9474 18.9474 10Z" fill="#1D2E2E"/>
</svg>
