<svg width="24" height="24" viewBox="0 0 24 24" fill="none" xmlns="http://www.w3.org/2000/svg">
<g clip-path="url(#clip0_11152_6538)">
<path d="M8.25475 4C8.39399 4 8.52752 4.05531 8.62598 4.15377C8.72444 4.25223 8.77975 4.38576 8.77975 4.525V5.50675H14.4175V4.53175C14.4175 4.39251 14.4728 4.25898 14.5713 4.16052C14.6697 4.06206 14.8033 4.00675 14.9425 4.00675C15.0817 4.00675 15.2153 4.06206 15.3137 4.16052C15.4122 4.25898 15.4675 4.39251 15.4675 4.53175V5.50675H17.5C17.8977 5.50675 18.2791 5.66468 18.5604 5.94582C18.8417 6.22697 18.9998 6.60831 19 7.006V17.5007C18.9998 17.8984 18.8417 18.2798 18.5604 18.5609C18.2791 18.8421 17.8977 19 17.5 19H5.5C5.10231 19 4.72089 18.8421 4.4396 18.5609C4.15832 18.2798 4.0002 17.8984 4 17.5007V7.006C4.0002 6.60831 4.15832 6.22697 4.4396 5.94582C4.72089 5.66468 5.10231 5.50675 5.5 5.50675H7.72975V4.52425C7.72995 4.38514 7.78535 4.2518 7.88378 4.1535C7.98222 4.05521 8.11564 4 8.25475 4ZM5.05 9.8065V17.5007C5.05 17.5598 5.06164 17.6184 5.08425 17.673C5.10687 17.7276 5.14002 17.7772 5.1818 17.8189C5.22359 17.8607 5.2732 17.8939 5.32779 17.9165C5.38239 17.9391 5.44091 17.9507 5.5 17.9508H17.5C17.5591 17.9507 17.6176 17.9391 17.6722 17.9165C17.7268 17.8939 17.7764 17.8607 17.8182 17.8189C17.86 17.7772 17.8931 17.7276 17.9157 17.673C17.9384 17.6184 17.95 17.5598 17.95 17.5007V9.817L5.05 9.8065ZM9.00025 14.9643V16.2137H7.75V14.9643H9.00025ZM12.1248 14.9643V16.2137H10.8752V14.9643H12.1248ZM15.25 14.9643V16.2137H13.9998V14.9643H15.25ZM9.00025 11.9815V13.231H7.75V11.9815H9.00025ZM12.1248 11.9815V13.231H10.8752V11.9815H12.1248ZM15.25 11.9815V13.231H13.9998V11.9815H15.25ZM7.72975 6.556H5.5C5.44091 6.556 5.38239 6.56764 5.32779 6.59025C5.2732 6.61287 5.22359 6.64602 5.1818 6.6878C5.14002 6.72959 5.10687 6.7792 5.08425 6.83379C5.06164 6.88839 5.05 6.94691 5.05 7.006V8.75725L17.95 8.76775V7.006C17.95 6.94691 17.9384 6.88839 17.9157 6.83379C17.8931 6.7792 17.86 6.72959 17.8182 6.6878C17.7764 6.64602 17.7268 6.61287 17.6722 6.59025C17.6176 6.56764 17.5591 6.556 17.5 6.556H15.4675V7.25275C15.4675 7.39199 15.4122 7.52552 15.3137 7.62398C15.2153 7.72244 15.0817 7.77775 14.9425 7.77775C14.8033 7.77775 14.6697 7.72244 14.5713 7.62398C14.4728 7.52552 14.4175 7.39199 14.4175 7.25275V6.556H8.77975V7.246C8.77975 7.38524 8.72444 7.51877 8.62598 7.61723C8.52752 7.71569 8.39399 7.771 8.25475 7.771C8.11551 7.771 7.98198 7.71569 7.88352 7.61723C7.78506 7.51877 7.72975 7.38524 7.72975 7.246V6.556Z" fill="#1D2E2E" fill-opacity="0.8"/>
</g>
<defs>
<clipPath id="clip0_11152_6538">
<rect width="15" height="15" fill="white" transform="translate(4 4)"/>
</clipPath>
</defs>
</svg>
