<svg width="24" height="24" viewBox="0 0 24 24" fill="none" xmlns="http://www.w3.org/2000/svg">
<path d="M19.6346 17.7216L19.3851 16.7166C18.6012 17.9821 17.5191 19.0362 16.2334 19.7865C14.9478 20.5369 13.4978 20.9607 12.0104 21.0208C9.80451 21.0208 7.68898 20.1445 6.12918 18.5847C4.56939 17.0249 3.69311 14.9094 3.69311 12.7035H5.07932C5.07932 14.5417 5.80956 16.3047 7.10939 17.6045C8.40922 18.9043 10.1722 19.6346 12.0104 19.6346C13.2987 19.5781 14.5523 19.1996 15.6565 18.5337C16.7608 17.8677 17.6805 16.9356 18.3315 15.8225L17.0285 16.169L16.6958 14.7828L19.4682 14.0897C19.6465 14.0457 19.835 14.0743 19.9922 14.1692C20.1495 14.2641 20.2627 14.4175 20.3069 14.5957L21 17.3681L19.6346 17.7216ZM4.38621 9.93108H4.55256L7.32499 9.23797L6.9923 7.85175L5.68926 8.17751C6.34283 7.06828 7.26363 6.14027 8.36772 5.47806C9.47181 4.81584 10.7241 4.44049 12.0104 4.38621C13.8486 4.38621 15.6116 5.11645 16.9114 6.41628C18.2112 7.71611 18.9415 9.47905 18.9415 11.3173H20.3277C20.3277 9.11141 19.4514 6.99587 17.8916 5.43608C16.3318 3.87628 14.2163 3 12.0104 3C10.5194 3.05676 9.06525 3.47897 7.7757 4.22949C6.48616 4.98001 5.40076 6.03586 4.61494 7.3042L4.38621 6.29919L3 6.63188L3.69311 9.40431C3.73106 9.5581 3.82053 9.69424 3.94664 9.79009C4.07275 9.88593 4.22789 9.93569 4.38621 9.93108Z" fill="#1D2E2E" fill-opacity="0.8"/>
</svg>
