<svg width="24" height="24" viewBox="0 0 24 24" fill="none" xmlns="http://www.w3.org/2000/svg">
<path d="M13 5.28387C12.7525 5.25012 12.505 5.25012 12.25 5.25012C11.995 5.25012 11.7475 5.25012 11.5 5.28387C9.38575 5.47687 7.42729 6.47752 6.03198 8.07766C4.63668 9.6778 3.91195 11.7542 4.00855 13.8751C4.10515 15.9959 5.01565 17.9979 6.55064 19.4646C8.08564 20.9312 10.127 21.7497 12.25 21.7497C14.3731 21.7497 16.4144 20.9312 17.9494 19.4646C19.4844 17.9979 20.3949 15.9959 20.4915 13.8751C20.5881 11.7542 19.8633 9.6778 18.468 8.07766C17.0727 6.47752 15.1143 5.47687 13 5.28387ZM12.25 20.2501C10.915 20.2501 9.60994 19.8542 8.49991 19.1125C7.38988 18.3708 6.52471 17.3166 6.01382 16.0832C5.50293 14.8498 5.36926 13.4926 5.62971 12.1833C5.89016 10.8739 6.53303 9.67115 7.47704 8.72715C8.42104 7.78314 9.62378 7.14027 10.9331 6.87982C12.2425 6.61937 13.5997 6.75304 14.8331 7.26393C16.0665 7.77482 17.1207 8.63999 17.8624 9.75002C18.6041 10.8601 19 12.1651 19 13.5001C19 15.2903 18.2888 17.0072 17.023 18.2731C15.7571 19.539 14.0402 20.2501 12.25 20.2501ZM19.285 7.50012C19.184 7.49973 19.0841 7.47894 18.9913 7.43899C18.8985 7.39903 18.8147 7.34075 18.745 7.26762C17.8904 6.37375 16.86 5.66642 15.7188 5.19012C15.6252 5.15409 15.5398 5.09968 15.4677 5.03009C15.3955 4.96051 15.3381 4.87716 15.2987 4.78499C15.2593 4.69281 15.2388 4.59367 15.2383 4.49343C15.2379 4.39319 15.2576 4.29388 15.2962 4.20137C15.3348 4.10886 15.3915 4.02503 15.4631 3.95484C15.5347 3.88464 15.6196 3.8295 15.7128 3.79267C15.806 3.75585 15.9057 3.73809 16.0059 3.74044C16.1061 3.74279 16.2049 3.76521 16.2963 3.80637C17.6284 4.36133 18.8311 5.18615 19.8288 6.22887C19.9314 6.33502 20.0004 6.46909 20.0271 6.61429C20.0538 6.75948 20.0371 6.90934 19.9791 7.04508C19.921 7.18082 19.8242 7.29641 19.7007 7.37735C19.5773 7.4583 19.4326 7.50101 19.285 7.50012ZM5.21501 7.50012C5.06844 7.49956 4.92525 7.45607 4.80313 7.37502C4.68101 7.29398 4.58532 7.17892 4.52787 7.04408C4.47042 6.90924 4.45374 6.76053 4.47989 6.61631C4.50604 6.4721 4.57388 6.3387 4.67501 6.23262C5.67263 5.1899 6.87539 4.36508 8.20751 3.81012C8.29891 3.76896 8.39764 3.74654 8.49785 3.74419C8.59806 3.74184 8.69773 3.7596 8.79097 3.79642C8.8842 3.83325 8.9691 3.88839 9.04066 3.95859C9.11222 4.02878 9.16898 4.11261 9.20759 4.20512C9.2462 4.29763 9.26587 4.39694 9.26544 4.49718C9.26501 4.59742 9.2445 4.69656 9.2051 4.78874C9.16571 4.88091 9.10823 4.96426 9.03608 5.03384C8.96392 5.10343 8.87855 5.15784 8.78501 5.19387C7.64373 5.67017 6.61337 6.3775 5.75876 7.27137C5.68829 7.34427 5.60378 7.40213 5.51032 7.44145C5.41686 7.48077 5.3164 7.50072 5.21501 7.50012Z" fill="#1D2E2E" fill-opacity="0.8"/>
<path d="M14.5 3.75C14.5 3.94891 14.421 4.13968 14.2803 4.28033C14.1397 4.42098 13.9489 4.5 13.75 4.5H13V5.28375C12.7525 5.25 12.505 5.25 12.25 5.25C11.995 5.25 11.7475 5.25 11.5 5.28375V4.5H10.75C10.5511 4.5 10.3603 4.42098 10.2197 4.28033C10.079 4.13968 10 3.94891 10 3.75C10 3.55109 10.079 3.36032 10.2197 3.21967C10.3603 3.07902 10.5511 3 10.75 3H13.75C13.9489 3 14.1397 3.07902 14.2803 3.21967C14.421 3.36032 14.5 3.55109 14.5 3.75ZM15.25 14.25H12.25C12.0511 14.25 11.8603 14.171 11.7197 14.0303C11.579 13.8897 11.5 13.6989 11.5 13.5V9C11.5 8.80109 11.579 8.61032 11.7197 8.46967C11.8603 8.32902 12.0511 8.25 12.25 8.25C12.4489 8.25 12.6397 8.32902 12.7803 8.46967C12.921 8.61032 13 8.80109 13 9V12.75H15.25C15.4489 12.75 15.6397 12.829 15.7803 12.9697C15.921 13.1103 16 13.3011 16 13.5C16 13.6989 15.921 13.8897 15.7803 14.0303C15.6397 14.171 15.4489 14.25 15.25 14.25Z" fill="#1D2E2E" fill-opacity="0.8"/>
</svg>
