<svg width="24" height="24" viewBox="0 0 24 24" fill="none" xmlns="http://www.w3.org/2000/svg">
<path d="M12 4.5C10.22 4.5 8.47991 5.02784 6.99987 6.01677C5.51983 7.00571 4.36628 8.41131 3.68509 10.0559C3.0039 11.7004 2.82567 13.51 3.17294 15.2558C3.5202 17.0016 4.37737 18.6053 5.63604 19.864C6.89472 21.1226 8.49836 21.9798 10.2442 22.3271C11.99 22.6743 13.7996 22.4961 15.4442 21.8149C17.0887 21.1337 18.4943 19.9802 19.4832 18.5001C20.4722 17.0201 21 15.28 21 13.5C20.9973 11.1139 20.0482 8.82629 18.361 7.13905C16.6737 5.45182 14.3861 4.50273 12 4.5ZM12 21C10.5166 21 9.0666 20.5601 7.83323 19.736C6.59986 18.9119 5.63856 17.7406 5.07091 16.3701C4.50325 14.9997 4.35473 13.4917 4.64411 12.0368C4.9335 10.582 5.64781 9.24559 6.6967 8.1967C7.7456 7.14781 9.08197 6.4335 10.5368 6.14411C11.9917 5.85472 13.4997 6.00325 14.8701 6.5709C16.2406 7.13856 17.4119 8.09986 18.236 9.33322C19.0601 10.5666 19.5 12.0166 19.5 13.5C19.4978 15.4884 18.7069 17.3948 17.3008 18.8008C15.8948 20.2069 13.9884 20.9978 12 21ZM16.2806 9.21938C16.3504 9.28903 16.4057 9.37175 16.4434 9.4628C16.4812 9.55384 16.5006 9.65144 16.5006 9.75C16.5006 9.84856 16.4812 9.94616 16.4434 10.0372C16.4057 10.1283 16.3504 10.211 16.2806 10.2806L12.5306 14.0306C12.4609 14.1003 12.3782 14.1556 12.2872 14.1933C12.1961 14.231 12.0986 14.2504 12 14.2504C11.9015 14.2504 11.8039 14.231 11.7128 14.1933C11.6218 14.1556 11.5391 14.1003 11.4694 14.0306C11.3997 13.9609 11.3444 13.8782 11.3067 13.7872C11.269 13.6961 11.2496 13.5985 11.2496 13.5C11.2496 13.4015 11.269 13.3039 11.3067 13.2128C11.3444 13.1218 11.3997 13.0391 11.4694 12.9694L15.2194 9.21938C15.289 9.14964 15.3718 9.09432 15.4628 9.05658C15.5538 9.01884 15.6514 8.99941 15.75 8.99941C15.8486 8.99941 15.9462 9.01884 16.0372 9.05658C16.1283 9.09432 16.211 9.14964 16.2806 9.21938ZM9 2.25C9 2.05109 9.07902 1.86032 9.21967 1.71967C9.36033 1.57902 9.55109 1.5 9.75 1.5H14.25C14.4489 1.5 14.6397 1.57902 14.7803 1.71967C14.921 1.86032 15 2.05109 15 2.25C15 2.44891 14.921 2.63968 14.7803 2.78033C14.6397 2.92098 14.4489 3 14.25 3H9.75C9.55109 3 9.36033 2.92098 9.21967 2.78033C9.07902 2.63968 9 2.44891 9 2.25Z" fill="#4A5858"/>
</svg>
