<svg width="20" height="20" viewBox="0 0 20 20" fill="none" xmlns="http://www.w3.org/2000/svg">
<path d="M18.3337 11.3844C18.3337 13.5 16.6135 15.2209 14.4972 15.2209C14.4964 15.2209 14.4956 15.2209 14.4956 15.2209H12.5789C12.3187 15.2209 12.1072 15.0094 12.1072 14.7492C12.1072 14.489 12.3187 14.2775 12.5789 14.2775H14.4964H14.498C16.0931 14.2767 17.3903 12.9796 17.3903 11.3844C17.3903 9.93396 16.3085 8.70283 14.8753 8.52123C14.7448 8.50472 14.6277 8.43475 14.5514 8.32783C14.4744 8.22091 14.4461 8.08726 14.472 7.95833C14.5271 7.68632 14.5546 7.43082 14.5546 7.17767C14.5546 5.11871 12.8785 3.4434 10.8195 3.4434C9.04042 3.4434 7.5019 4.70519 7.1607 6.44418C7.1151 6.67846 6.91306 6.83805 6.66463 6.82469C6.5585 6.81682 6.45158 6.80896 6.34545 6.80896C4.28649 6.80896 2.61039 8.48428 2.61039 10.5432C2.61039 12.6014 4.2857 14.2767 6.34388 14.2775H7.42171C7.68193 14.2775 7.89341 14.489 7.89341 14.7492C7.89341 15.0094 7.68193 15.2209 7.42171 15.2209H6.34702C6.34624 15.2209 6.34545 15.2209 6.34545 15.2209C3.76526 15.2209 1.66699 13.1226 1.66699 10.5432C1.66699 7.96855 3.75819 5.87264 6.33209 5.86478C6.90363 3.8923 8.72989 2.5 10.8203 2.5C13.3997 2.5 15.498 4.59827 15.498 7.17767C15.498 7.34277 15.4893 7.50865 15.4712 7.67689C17.1324 8.10849 18.3337 9.625 18.3337 11.3844ZM12.2991 12.4678L10.3337 10.5024C10.2904 10.4583 10.2377 10.4237 10.1804 10.4002C10.0656 10.3522 9.93586 10.3522 9.82029 10.4002C9.76212 10.4245 9.71023 10.4591 9.66699 10.5024L7.70158 12.4678C7.51762 12.6517 7.51762 12.9505 7.70158 13.1352C7.88555 13.32 8.1835 13.3192 8.36825 13.1352L9.52941 11.9748V16.9733C9.52941 17.2343 9.74089 17.445 10.0011 17.445C10.2613 17.445 10.4728 17.2335 10.4728 16.9733V11.9748L11.634 13.1352C11.726 13.2272 11.847 13.2736 11.9673 13.2736C12.0876 13.2736 12.2087 13.2272 12.3006 13.1352C12.483 12.9513 12.483 12.6525 12.2991 12.4678Z" fill="white"/>
</svg>
