<svg width="225" height="140" viewBox="0 0 225 140" fill="none" xmlns="http://www.w3.org/2000/svg">
<path d="M338.627 -169.32L342.465 -157.877C346.304 -146.434 353.981 -123.548 346.784 -111.42C339.588 -99.2923 317.517 -97.9224 306.122 -88.8318C294.726 -79.7413 294.004 -62.9301 290.046 -48.46C286.088 -33.9899 278.893 -21.8609 271.243 -10.0607C263.593 1.73956 255.489 13.2111 249.627 26.3041C243.765 39.3971 240.145 54.1116 224.928 60.4386C209.711 66.7657 182.899 64.7054 164.829 68.969C146.76 73.2326 137.434 83.8202 136.944 100.799C136.455 117.778 144.802 141.149 141.166 155.852C137.531 170.556 121.913 176.592 114.446 188.525C106.979 200.457 107.663 218.285 93.9079 225.669C80.1525 233.053 51.9571 229.993 41.9885 240.116C32.02 250.239 40.2783 273.545 39.3944 290.239C38.5105 306.932 28.4845 317.014 20.7564 328.757C13.0282 340.501 7.59796 353.906 4.88282 360.609L2.16766 367.311" stroke="#FEF7EB" stroke-width="4"/>
</svg>
